<?xml version="1.0" encoding="UTF-8" standalone="no"?>
<svg
   width="236.01265"
   height="272.87253"
   viewBox="0 0 236.01265 272.87253"
   fill="none"
   version="1.1"
   id="svg1"
   sodipodi:docname="arrow-string-ball.svg"
   inkscape:version="1.3.2 (091e20e, 2023-11-25, custom)"
   xmlns:inkscape="http://www.inkscape.org/namespaces/inkscape"
   xmlns:sodipodi="http://sodipodi.sourceforge.net/DTD/sodipodi-0.dtd"
   xmlns="http://www.w3.org/2000/svg"
   xmlns:svg="http://www.w3.org/2000/svg">
  <sodipodi:namedview
     id="namedview1"
     pagecolor="#000000"
     bordercolor="#000000"
     borderopacity="0.25"
     inkscape:showpageshadow="2"
     inkscape:pageopacity="0.0"
     inkscape:pagecheckerboard="0"
     inkscape:deskcolor="#d1d1d1"
     inkscape:zoom="1.0091912"
     inkscape:cx="138.22951"
     inkscape:cy="174.89253"
     inkscape:window-width="1366"
     inkscape:window-height="745"
     inkscape:window-x="-8"
     inkscape:window-y="-8"
     inkscape:window-maximized="1"
     inkscape:current-layer="g1" />
  <g
     clip-path="url(#clip0_21_18)"
     id="g1"
     transform="translate(-0.99385073,0.00117985)">
    <path
       id="path2"
       style="fill:none;stroke:#f0ebf6;stroke-width:4.303;stroke-linecap:square;stroke-linejoin:miter;stroke-dasharray:none;stroke-opacity:1"
       d="M 145.58682,233.68952 114.53101,269.55254 84.40236,233.55578 M 186.108,69.613 c -19.333,34.667 -92.9994,128.8 -146.9994,104 -54,-24.8 -41.49994,-73.5 -1e-4,-82.5 41.4999,-9 87.77108,45.10856 75.37108,176.70856 M 216.15,7.32075 c 0,0 -1.939,5.60205 -3.232,7.75685 m 10.989,-3.0166 c 0,0 -2.586,10.4501 -6.464,16.2678 M 203.869,3.01141 c 0,0 11.096,14.75949 12.173,23.91679 M 191.479,4.19648 c 0,0 10.019,8.61872 11.312,17.23732 M 182.645,7.53626 c 0,0 8.619,8.07994 8.834,12.49704 m 39.215,0.7541 c 0,0 -2.693,10.4502 -7.003,12.8203 m -56.058,10.2346 c 0,0 16.699,0.6464 23.594,-5.8176 m 5.531,8.8341 c 0,0 -19.715,9.0497 -26.502,4.4171 m 24.563,6.895 c 0,0 -14.113,3.2319 -19.069,0.8618 m 21.87,-18.3146 c 0,0 1.401,18.4224 -7.434,27.6874 M 207.424,47.613 c 0,0 -3.34,16.1599 -10.45,21.9776 m 6.895,0.4309 c 0,0 4.955,-4.5248 10.342,-14.6517 m 6.033,8.4031 c 0,0 -12.497,-32.3199 -53.436,-28.0105 m 59.9,21.5466 c 0,0 -13.79,-38.1376 -59.038,-28.0106 m 65.287,16.3754 c 0,0 -16.915,-35.121 -63.886,-22.193 m -2.693,12.8227 c 0,-4.4783 0.885,-8.9128 2.606,-13.0502 1.721,-4.1375 4.243,-7.8968 7.422,-11.0635 3.179,-3.16667 6.954,-5.6786 11.108,-7.39238 4.154,-1.71379 8.606,-2.59586 13.102,-2.59585 4.496,-10e-6 8.949,0.88206 13.103,2.59584 4.154,1.71378 7.928,4.22571 11.107,7.39239 3.18,3.1666 5.702,6.926 7.422,11.0635 1.721,4.1374 2.607,8.5719 2.607,13.0502 0,4.4784 -0.886,8.9128 -2.607,13.0503 -1.72,4.1374 -4.242,7.8967 -7.422,11.0634 -3.179,3.1666 -6.953,5.6786 -11.107,7.3923 -4.154,1.7138 -8.607,2.5959 -13.103,2.5959 -4.496,0 -8.948,-0.8821 -13.102,-2.5959 -4.154,-1.7137 -7.929,-4.2257 -11.108,-7.3923 -3.179,-3.1667 -5.701,-6.926 -7.422,-11.0635 -1.721,-4.1374 -2.606,-8.5718 -2.606,-13.0502 z"
       sodipodi:nodetypes="ccccsscccccccccccccccccccccccccccccccscssssccscccscccs" />
  </g>
  <defs
     id="defs1">
    <clipPath
       id="clip0_21_18">
      <rect
         width="236.112"
         height="271.53299"
         fill="#ffffff"
         transform="translate(0.943848)"
         id="rect1"
         x="0"
         y="0" />
    </clipPath>
  </defs>
</svg>
