<?xml version="1.0" encoding="UTF-8" standalone="no"?>
<!-- Created with Inkscape (http://www.inkscape.org/) -->

<svg
   width="6.5739198mm"
   height="6.6145835mm"
   viewBox="0 0 6.57392 6.6145836"
   version="1.1"
   id="svg1"
   xml:space="preserve"
   xmlns="http://www.w3.org/2000/svg"
   xmlns:svg="http://www.w3.org/2000/svg"><defs
     id="defs1" /><g
     id="layer1"
     transform="translate(-58.157728,-52.166271)"><path
       id="path1"
       style="display:inline;fill:#f0ebf6;fill-opacity:1;stroke:none;stroke-width:0.413015;stroke-linecap:round;stroke-linejoin:round;stroke-opacity:1"
       d="m 138.49542,52.181828 c -0.11115,0.02167 -0.21354,0.06657 -0.29714,0.138493 -3.4176,2.940212 -11.77085,21.508764 -11.77085,21.508764 C 115.334,70.386299 86.452604,73.637882 86.452604,73.637882 81.426014,63.422556 75.16193,55.543871 73.371232,53.381755 73.098457,53.052402 72.673238,53.074226 72.440023,53.433948 63.553622,67.140799 59.292505,102.71001 59.292505,102.71001 l 6.120557,0.47852 c 1.625757,1.91267 0.0956,3.44269 0.0956,3.44269 l -6.694165,0.3824 c -0.749813,1.79389 0,4.87722 0,4.87722 l 7.889958,-1.24333 c 2.72554,0.90852 0.860412,3.20394 0.860412,3.20394 l -7.985559,3.10782 c 2.176333,9.57587 6.622795,14.09415 11.737568,17.4751 2.70244,1.78636 7.47968,4.00212 10.618804,4.79546 13.419396,3.39143 34.24912,3.46453 48.37344,-0.122 3.1644,-0.80352 8.08747,-2.83676 10.80513,-4.64364 12.64586,-8.4078 14.41838,-21.19565 14.41838,-21.19565 l -9.80509,-3.2458 c -1.14959,-2.63729 1.28468,-3.24631 1.28468,-3.24631 l 8.92607,1.55546 c 0.61597,-2.13017 0.40617,-5.00383 0.40617,-5.00383 l -8.52092,-0.0677 c -2.43443,-1.82579 -0.13488,-4.05763 -0.13488,-4.05763 l 8.57622,0.0646 c -7.90377,-34.518557 -14.82844,-44.479882 -16.80414,-46.75374 -0.21956,-0.252689 -0.63185,-0.396763 -0.96532,-0.331762 z m -5.20433,33.557641 c 3.76366,8.7e-5 6.81466,4.160703 6.81457,9.292973 9e-5,5.132268 -3.0509,9.292888 -6.81457,9.292978 -3.76367,-9e-5 -6.81466,-4.16071 -6.81457,-9.292978 -9e-5,-5.13227 3.05091,-9.292886 6.81457,-9.292973 z m -53.770362,0.989604 c 3.763513,8.6e-5 6.814451,4.160392 6.814571,9.292456 8.9e-5,5.132271 -3.05091,9.292881 -6.814571,9.292971 -3.763662,-9e-5 -6.814661,-4.1607 -6.814572,-9.292971 1.2e-4,-5.132065 3.051057,-9.292371 6.814572,-9.292456 z m 26.634552,6.108671 c 1.21473,0.0044 2.46316,0.147052 2.85305,0.346749 0.69314,0.35502 0.54105,1.639538 -0.40566,2.924369 l 0.4191,3.325895 4.34495,4.246773 c 0,0 -0.0294,2.7091 -3.38274,2.06499 l -3.68091,-2.75694 -3.85454,2.90783 c 0,0 -3.786859,0.40562 -2.84014,-2.50217 l 4.12533,-3.989421 0.27027,-3.313493 c 0,0 -1.85992,-2.283655 -0.20257,-2.975529 0.48482,-0.202392 1.40907,-0.282473 2.35386,-0.279053 z"
       transform="matrix(0.06715094,0,0,0.07380756,54.230657,48.316006)" /><path
       style="fill:none;fill-opacity:1;stroke:#ffffff;stroke-width:0.413015;stroke-linecap:round;stroke-linejoin:round;stroke-opacity:1"
       d="M 132.54774,104.81409 Z"
       id="path3" /></g></svg>
