<?xml version="1.0" encoding="UTF-8" standalone="no"?>
<!-- Created with Inkscape (http://www.inkscape.org/) -->

<svg
   width="136.92017mm"
   height="185.97838mm"
   viewBox="0 0 136.92017 185.97838"
   version="1.1"
   id="svg1"
   xml:space="preserve"
   xmlns="http://www.w3.org/2000/svg"
   xmlns:svg="http://www.w3.org/2000/svg"><defs
     id="defs1" /><g
     id="layer1"
     transform="translate(-21.708042,-52.166271)"><path
       id="path1"
       style="display:inline;fill:#f0ebf6;fill-opacity:1;stroke:none;stroke-width:0.413015;stroke-linecap:round;stroke-linejoin:round;stroke-opacity:1"
       d="m 138.49542,52.181828 c -0.11115,0.02167 -0.21354,0.06657 -0.29714,0.138493 -3.4176,2.940212 -11.77085,21.508764 -11.77085,21.508764 C 115.334,70.386299 86.452604,73.637882 86.452604,73.637882 81.426014,63.422556 75.16193,55.543871 73.371232,53.381755 73.098457,53.052402 72.673238,53.074226 72.440023,53.433948 63.553622,67.140799 59.292505,102.71001 59.292505,102.71001 l 6.120557,0.47852 c 1.625757,1.91267 0.0956,3.44269 0.0956,3.44269 l -6.694165,0.3824 c -1.53013,2.19957 0,4.87722 0,4.87722 l 7.889958,-1.24333 c 2.72554,0.90852 0.860412,3.20394 0.860412,3.20394 l -7.985559,3.10782 c 2.86899,12.62356 16.77262,20.48402 16.77262,20.48402 -15.981492,21.6618 -18.971969,69.88979 -18.971969,69.88979 0.382533,31.5589 27.160099,29.45505 27.160099,29.45505 l -8.989632,-66.752 c 2.351214,-3.51801 4.781621,-0.1912 4.781621,-0.1912 4.556752,22.28708 7.799809,52.91177 9.257813,63.74314 0.186632,1.38646 1.347295,3.09642 2.670037,3.54718 4.932743,1.68096 11.281223,0.90112 13.917663,-1.16991 1.13905,-0.89476 1.19985,-3.54455 1.16874,-5.05641 l -0.88677,-43.08525 c 3.06027,-4.20787 6.19664,-0.38241 6.19664,-0.38241 l 0.3685,43.88507 c 0.0105,1.25526 0.0672,3.42152 0.92425,4.29439 3.45919,3.52305 15.69432,3.44884 16.60952,-0.79785 l 4.41678,-66.17116 c 3.38115,-2.70492 4.73356,0.13539 4.73356,0.13539 l -4.05711,67.21709 c 13.11882,0.33811 20.96306,-16.09463 20.96306,-16.09463 9.19669,-30.0245 -16.09411,-85.88106 -16.09411,-85.88106 10.54915,-6.89751 15.01201,-20.75997 15.01201,-20.75997 l -9.80509,-3.2458 c -1.14959,-2.63729 1.28468,-3.24631 1.28468,-3.24631 l 8.92607,1.55546 c 1.28481,-2.43443 0.40617,-5.00383 0.40617,-5.00383 l -8.52092,-0.0677 c -2.43443,-1.82579 -0.13488,-4.05763 -0.13488,-4.05763 l 8.57622,0.0646 c -7.90377,-34.518557 -14.82844,-44.479882 -16.80414,-46.75374 -0.21956,-0.252689 -0.63185,-0.396763 -0.96532,-0.331762 z m -5.20433,33.557641 c 3.76366,8.7e-5 6.81466,4.160703 6.81457,9.292973 9e-5,5.132268 -3.0509,9.292888 -6.81457,9.292978 -3.76367,-9e-5 -6.81466,-4.16071 -6.81457,-9.292978 -9e-5,-5.13227 3.05091,-9.292886 6.81457,-9.292973 z m -53.770362,0.989604 c 3.763513,8.6e-5 6.814451,4.160392 6.814571,9.292456 8.9e-5,5.132271 -3.05091,9.292881 -6.814571,9.292971 -3.763662,-9e-5 -6.814661,-4.1607 -6.814572,-9.292971 1.2e-4,-5.132065 3.051057,-9.292371 6.814572,-9.292456 z m 26.634552,6.108671 c 1.21473,0.0044 2.46316,0.147052 2.85305,0.346749 0.69314,0.35502 0.54105,1.639538 -0.40566,2.924369 l 0.4191,3.325895 4.34495,4.246773 c 0,0 -0.0294,2.7091 -3.38274,2.06499 l -3.68091,-2.75694 -3.85454,2.90783 c 0,0 -3.786859,0.40562 -2.84014,-2.50217 l 4.12533,-3.989421 0.27027,-3.313493 c 0,0 -1.85992,-2.283655 -0.20257,-2.975529 0.48482,-0.202392 1.40907,-0.282473 2.35386,-0.279053 z" /><path
       style="fill:none;fill-opacity:1;stroke:#ffffff;stroke-width:0.413015;stroke-linecap:round;stroke-linejoin:round;stroke-opacity:1"
       d="M 132.54774,104.81409 Z"
       id="path3" /><path
       style="fill:#f0ebf6;fill-opacity:1;stroke:none;stroke-width:0.413;stroke-linecap:round;stroke-linejoin:bevel;stroke-dasharray:none;stroke-opacity:1"
       d="m 51.079835,204.92561 c -3.170773,-2.5304 -13.154677,-12.45649 -11.692699,-36.24095 0.07757,-1.26192 -0.330111,-3.18273 -1.105468,-4.1802 -2.403541,-3.0921 -7.978645,-8.11708 -14.838048,-0.15429 -0.943351,1.0951 -1.682767,3.24001 -1.715301,4.68557 -0.237154,10.53727 1.081537,49.73856 33.121475,58.698 1.219996,0.34115 1.781331,-0.36559 1.209218,-1.49605 -2.270724,-4.4868 -5.65455,-11.16082 -4.255802,-19.47987 0.106905,-0.63582 -0.219412,-1.43003 -0.723375,-1.83221 z"
       id="path5" /></g></svg>
