<svg width="46" height="64" viewBox="0 0 46 64" fill="none" xmlns="http://www.w3.org/2000/svg">
<g clip-path="url(#clip0_36_51)">
<path d="M1.88805 0.247444L44.1758 0.393165C44.5281 0.39438 44.8655 0.535848 45.1139 0.786466C45.3622 1.03709 45.501 1.37633 45.5 1.72962L45.4902 4.9511C45.4891 5.30471 45.3482 5.64347 45.0985 5.89312C44.8488 6.14278 44.5105 6.28297 44.1579 6.28297H41.334L41.3105 12.3586C41.3061 13.5048 41.1495 15.3545 40.8084 16.4474C39.8242 19.5997 37.0021 25.972 29.2893 32.0655C29.2893 32.0655 39.0191 39.876 41.2133 49.1534C41.4769 50.2677 41.5657 52.1257 41.5657 53.2719V58.0111H44.2172C44.3916 58.0111 44.5644 58.0455 44.7255 58.1125C44.8866 58.1794 45.0331 58.2775 45.1564 58.4012C45.2797 58.5249 45.3776 58.6717 45.4443 58.8333C45.5111 58.9949 45.5454 59.1681 45.5454 59.343V62.487C45.5454 62.6619 45.5111 62.8351 45.4443 62.9967C45.3776 63.1583 45.2797 63.3051 45.1564 63.4288C45.0331 63.5525 44.8866 63.6506 44.7255 63.7175C44.5644 63.7844 44.3916 63.8189 44.2172 63.8189H1.80536C1.63094 63.8189 1.45822 63.7844 1.29707 63.7175C1.13593 63.6506 0.989507 63.5525 0.866172 63.4288C0.742836 63.3051 0.645002 63.1583 0.578254 62.9967C0.511505 62.8351 0.47715 62.6619 0.47715 62.487V59.4978C0.47715 59.3229 0.511505 59.1497 0.578254 58.9881C0.645002 58.8266 0.742836 58.6797 0.866172 58.5561C0.989507 58.4324 1.13593 58.3343 1.29707 58.2673C1.45822 58.2004 1.63094 58.166 1.80536 58.166H4.72994V52.575C4.72994 51.4288 4.63927 49.5554 4.87423 48.4394C5.45787 45.667 7.81928 40.1429 16.7768 32.147C16.7768 32.147 6.55071 23.5801 5.05922 16.0121C4.83816 14.8904 4.88439 13.0201 4.88439 11.8739V6.1281H1.81085C1.63725 6.1281 1.46539 6.09353 1.30523 6.02638C1.14507 5.95924 0.9998 5.86086 0.87786 5.73697C0.755921 5.61307 0.659736 5.46612 0.594891 5.30465C0.530045 5.14317 0.497829 4.97039 0.500113 4.79633L0.542387 1.57463C0.547038 1.22024 0.691006 0.882017 0.942994 0.63349C1.19498 0.384963 1.5346 0.246227 1.88805 0.247444Z" fill="#9598DB"/>
<path d="M23.4181 30.7531C23.4181 30.7531 22.028 27.9654 11.989 18.2083C11.989 18.2083 20.0202 20.3766 23.5725 19.1376C23.5725 19.1376 29.7504 16.3498 32.9938 19.1376L23.4181 30.7531Z" fill="#080A14"/>
<path d="M10.5989 55.0685C10.5989 55.0685 10.8521 43.1977 22.8003 42.8334C34.7484 42.4691 35.3105 54.9136 35.3105 54.9136L10.5989 55.0685Z" fill="#080A14"/>
</g>
<defs>
<clipPath id="clip0_36_51">
<rect width="45" height="63.5714" fill="white" transform="translate(0.5 0.247437)"/>
</clipPath>
</defs>
</svg>
