<svg width="76" height="84" viewBox="0 0 76 84" fill="none" xmlns="http://www.w3.org/2000/svg">
<g clip-path="url(#clip0_40_75)">
<path d="M62.1074 0.973145L15.4597 81.0551L18.8477 83.0934L65.5327 2.95637L62.1074 0.973145ZM65.1611 19.3538C61.3735 19.3047 57.2262 19.4259 55.7878 20.097L48.9 31.8649C50.6008 33.8339 51.5372 36.3486 51.5384 38.9505C51.5384 41.8274 50.3956 44.5864 48.3614 46.6207C46.3272 48.6549 43.5682 49.7977 40.6914 49.7977C39.9697 49.7889 39.2508 49.7081 38.5452 49.5565L34.4041 56.6315C37.3489 56.0524 40.2937 55.4734 43.2385 54.8944C47.7861 54.0002 55.1085 52.218 59.713 51.7667C67.5108 51.0024 75.8289 51.4534 75.8289 51.4534L72.3768 19.6176C72.3768 19.6176 68.9488 19.4018 65.1611 19.3538ZM46.4384 21.5352C46.4384 21.5352 45.5177 21.6588 44.0828 21.878C36.5719 23.0248 24.5287 25.8111 16.9451 26.0982C10.9282 26.3262 5.38852 26.2983 5.38852 26.2983L8.81262 58.4379C10.8807 59.6923 25.0519 58.0991 25.0519 58.0991L32.1028 45.9637L32.2201 45.7621C30.7136 43.8995 29.8097 41.5293 29.8097 38.9472C29.8097 32.9565 34.6662 28.1 40.6569 28.1C41.254 28.1 41.8391 28.15 42.41 28.2431L42.435 28.199L46.4384 21.5352ZM0.171082 33.138L3.52381 64.947C6.43942 65.9302 21.4244 64.4047 21.4244 64.4047L23.594 60.5397C8.23623 61.5907 6.84622 60.6075 6.84622 60.6075L3.71902 33.3297L0.171082 33.138ZM68.4569 53.2498C61.2966 53.339 32.7979 59.1963 32.7979 59.1963L30.803 62.7256C56.2977 56.8944 70.6029 57.806 70.6029 57.806L69.9388 53.4203C69.7099 53.2933 69.1976 53.241 68.4569 53.2498Z" fill="#9598DB" stroke="#9598DB" stroke-width="0.263737" stroke-linecap="round" stroke-linejoin="round"/>
</g>
<defs>
<clipPath id="clip0_40_75">
<rect width="76" height="82.4624" fill="white" transform="translate(0 0.802002)"/>
</clipPath>
</defs>
</svg>
